<svg width="194" height="55" viewBox="0 0 194 55" fill="none" xmlns="http://www.w3.org/2000/svg">
<path d="M1.86582 0.499648C1.58949 0.021468 0.977829 -0.142159 0.499648 0.134178C0.021468 0.410514 -0.142159 1.02217 0.134178 1.50035L1.86582 0.499648ZM188.895 4.11294C188.648 3.61884 188.047 3.41831 187.553 3.66505L179.501 7.68592C179.007 7.93266 178.807 8.53323 179.053 9.02733C179.3 9.52144 179.901 9.72196 180.395 9.47522L187.552 5.90112L191.126 13.0583C191.373 13.5524 191.974 13.753 192.468 13.5062C192.962 13.2595 193.162 12.6589 192.916 12.1648L188.895 4.11294ZM0.134178 1.50035C7.12003 13.5889 17.3662 26.9782 33.5583 37.3404C49.7562 47.7063 71.8375 55 102.424 55V53C72.1714 53 50.4741 45.7912 34.6364 35.6558C18.7929 25.5168 8.74649 12.4062 1.86582 0.499648L0.134178 1.50035ZM102.424 55C125.28 55 145.884 45.4967 161.244 34.5437C168.929 29.0637 175.322 23.2061 180.051 17.9602C184.753 12.7454 187.89 8.04602 188.949 4.87641L187.051 4.243C186.129 7.00622 183.225 11.4533 178.566 16.621C173.935 21.7575 167.651 27.5184 160.083 32.9153C144.936 43.716 124.733 53 102.424 53V55Z" fill="black"/>
</svg>
