<svg id="Layer_3" height="512" viewBox="0 0 64 64" width="512" xmlns="http://www.w3.org/2000/svg" data-name="Layer 3"><path d="m30 43h4v2h-4z"/><path d="m58 5h-11v-3a1 1 0 0 0 -1-1h-28a1 1 0 0 0 -1 1v2h-11a5.006 5.006 0 0 0 -5 5v35a5.006 5.006 0 0 0 5 5h19.45c-.9 3.809-2.98 8.4-6.5 11.038l-1.55 1.162a1 1 0 0 0 .6 1.8h28a1 1 0 0 0 .6-1.8l-1.55-1.162a20.148 20.148 0 0 1 -6.797-11.038h19.747a5.006 5.006 0 0 0 5-5v-34a5.006 5.006 0 0 0 -5-5zm0 2a3 3 0 0 1 3 3v3h-14v-6zm-39 2h26v26h-26zm-1 28h28a1 1 0 0 0 1-1v-21h14v24h-58v-24h14v21a1 1 0 0 0 1 1zm27-34v4h-26v-4zm-39 3h11v7h-14v-4a3 3 0 0 1 3-3zm37.058 55h-22.119c3.605-3.13 5.7-8.027 6.558-12h8.7a22.847 22.847 0 0 0 6.861 12zm14.942-14h-52a3 3 0 0 1 -3-3v-3h58v3a3 3 0 0 1 -3 3z"/><path d="m26 11h-4a1 1 0 0 0 -1 1v4a1 1 0 0 0 1 1h4a1 1 0 0 0 1-1v-4a1 1 0 0 0 -1-1zm-1 4h-2v-2h2z"/><path d="m26 19h-4a1 1 0 0 0 -1 1v4a1 1 0 0 0 1 1h4a1 1 0 0 0 1-1v-4a1 1 0 0 0 -1-1zm-1 4h-2v-2h2z"/><path d="m26 27h-4a1 1 0 0 0 -1 1v4a1 1 0 0 0 1 1h4a1 1 0 0 0 1-1v-4a1 1 0 0 0 -1-1zm-1 4h-2v-2h2z"/><path d="m29 11h14v2h-14z"/><path d="m29 15h14v2h-14z"/><path d="m29 19h14v2h-14z"/><path d="m29 23h14v2h-14z"/><path d="m29 27h14v2h-14z"/><path d="m29 31h14v2h-14z"/><path d="m49 9h2v2h-2z"/><path d="m53 9h2v2h-2z"/><path d="m57 9h2v2h-2z"/></svg>