<svg id="OutlineExpand" enable-background="new 0 0 64 64" height="512" viewBox="0 0 64 64" width="512" xmlns="http://www.w3.org/2000/svg"><path d="m58 21.295v-5.295c0-3.859-3.141-7-7-7s-7 3.141-7 7c0 1.958.81 3.728 2.111 5h-.111c-3.859 0-7 3.141-7 7v2h-1.09c-.478-2.833-2.942-5-5.91-5-3.309 0-6 2.691-6 6 0 1.538.586 2.937 1.54 4h-7.381l-.159-1.073v-12.927h8c.288 0 .562-.124.753-.342l7-8c.347-.396.326-.993-.046-1.365l-3-3c-.391-.391-1.023-.391-1.414 0l-5.707 5.707h-7.697c1.301-1.272 2.111-3.042 2.111-5v-6c0-.553-.447-1-1-1h-6c-3.859 0-7 3.141-7 7 0 1.958.81 3.728 2.111 5h-.111c-3.859 0-7 3.141-7 7v14c0 .553.447 1 1 1h4v25c0 .553.447 1 1 1h6c.553 0 1-.447 1-1v-11.917l2.014 12.081c.08.482.497.836.986.836h6c.291 0 .567-.127.757-.347.19-.221.275-.513.232-.8l-2.941-19.853h4.952v20c0 .553.447 1 1 1h10c.553 0 1-.447 1-1v-12h3c.553 0 1-.447 1-1v-8c0-1.13-.391-2.162-1.026-3h.026c1.126 0 2.155-.388 2.992-1.019l-1.982 13.877c-.041.287.045.578.234.797.191.219.466.345.756.345h2v10c0 .553.447 1 1 1h10c.553 0 1-.447 1-1v-10h2c.29 0 .565-.126.756-.345.189-.219.275-.51.234-.797l-1.408-9.858h3.418c.553 0 1-.447 1-1v-11c0-3.164-2.112-5.842-5-6.705zm-12-5.295c0-2.757 2.243-5 5-5s5 2.243 5 5v5h-5c-2.757 0-5-2.243-5-5zm-18 15c0-2.206 1.794-4 4-4s4 1.794 4 4-1.794 4-4 4-4-1.794-4-4zm-20-22c0-2.757 2.243-5 5-5h5v5c0 2.757-2.243 5-5 5s-5-2.243-5-5zm9.847 51-3.86-23.164c-.086-.515-.561-.874-1.068-.833-.52.043-.919.476-.919.997v23h-4v-39h-2v13h-3v-13c0-2.757 2.243-5 5-5h18c.266 0 .52-.105.707-.293l5.293-5.293 1.632 1.632-6.086 6.954h-8.546c-.553 0-1 .447-1 1v14c0 .049.004.098.011.146l3.83 25.854zm22.153-20v7h-2v-7h-2v20h-3v-12h-2v12h-3v-20c0-.553-.447-1-1-1h-6.248l-.296-2h11.544 5c1.654 0 3 1.346 3 3zm7 11h3v9h-3zm8 9h-3v-9h3zm-10.847-11 1.714-12h10.265l1.714 12zm16.847-11h-2.704l-.296-2.073v-8.927h-2v8h-10v-3-5h-2v5c0 1.654-1.346 3-3 3h-4-.54c.742-.827 1.257-1.858 1.45-3h2.09c.553 0 1-.447 1-1v-3c0-2.757 2.243-5 5-5h5 5c2.757 0 5 2.243 5 5z"/><path d="m11 20h1v10h2v-10h1v-2h-4z"/></svg>