<svg id="Line" height="512" viewBox="0 0 64 64" width="512" xmlns="http://www.w3.org/2000/svg"><path d="m20.86114 25.08657a10.58265 10.58265 0 0 0 10.57086-10.57085c-.58064-14.0225-20.562-14.01944-21.14076.00008a10.58246 10.58246 0 0 0 10.5699 10.57077zm0-19.13927a8.578 8.578 0 0 1 8.56886 8.56842c-.4494 11.35907-16.68892 11.35689-17.13684-.00009a8.57778 8.57778 0 0 1 8.56798-8.56833z"/><path d="m56.10155 24.19312h-24.99116a3.00621 3.00621 0 0 0 -3.00293 3.00293v.95045c-10.15546-5.44445-23.15383 2.37688-23.21193 13.88113a1.02114 1.02114 0 0 0 1.00085 1.02126h22.21108v13.94818a3.00621 3.00621 0 0 0 3.00293 3.00293h24.99116a3.00621 3.00621 0 0 0 3.00292-3.00293v-29.801a3.00621 3.00621 0 0 0 -3.00292-3.00295zm-49.14555 16.85388c.81426-10.01349 12.57015-16.0431 21.15157-10.60961l-.00011 10.60961zm50.14652 15.95007a1.002 1.002 0 0 1 -1.001 1.001h-24.99113a1.002 1.002 0 0 1 -1.001-1.001v-29.801a1.002 1.002 0 0 1 1.001-1.001h24.99116a1.002 1.002 0 0 1 1.001 1.001z"/><path d="m40.05465 38.08655a1.00148 1.00148 0 0 0 1.27761.30107l7.88367-4.14173a1.00086 1.00086 0 1 0 -.9306-1.77224l-7.11433 3.73753-1.89735-2.63489a1.00126 1.00126 0 0 0 -1.62465 1.17013z"/><path d="m52.89236 43.22583h-18.57279a1.00117 1.00117 0 0 0 .00007 2.002h18.57272a1.00118 1.00118 0 0 0 0-2.002z"/><path d="m52.89236 48.21458h-18.57279a1.00117 1.00117 0 0 0 .00007 2.002h18.57272a1.00118 1.00118 0 0 0 0-2.002z"/></svg>