<svg width="194" height="55" viewBox="0 0 194 55" fill="none" xmlns="http://www.w3.org/2000/svg">
<path d="M1.86582 54.5004C1.58949 54.9785 0.977829 55.1422 0.499648 54.8658C0.021468 54.5895 -0.142159 53.9778 0.134178 53.4996L1.86582 54.5004ZM188.895 50.8871C188.648 51.3812 188.047 51.5817 187.553 51.335L179.501 47.3141C179.007 47.0673 178.807 46.4668 179.053 45.9727C179.3 45.4786 179.901 45.278 180.395 45.5248L187.552 49.0989L191.126 41.9417C191.373 41.4476 191.974 41.247 192.468 41.4938C192.962 41.7405 193.162 42.3411 192.916 42.8352L188.895 50.8871ZM0.134178 53.4996C7.12003 41.4111 17.3662 28.0218 33.5583 17.6596C49.7562 7.29372 71.8375 0 102.424 0V2C72.1714 2 50.4741 9.20877 34.6364 19.3442C18.7929 29.4832 8.74649 42.5938 1.86582 54.5004L0.134178 53.4996ZM102.424 0C125.28 0 145.884 9.50332 161.244 20.4563C168.929 25.9363 175.322 31.7939 180.051 37.0398C184.753 42.2546 187.89 46.954 188.949 50.1236L187.051 50.757C186.129 47.9938 183.225 43.5467 178.566 38.379C173.935 33.2425 167.651 27.4816 160.083 22.0847C144.936 11.284 124.733 2 102.424 2V0Z" fill="black"/>
</svg>
