<?xml version="1.0" encoding="utf-8"?>
<!-- Generator: Adobe Illustrator 28.2.0, SVG Export Plug-In . SVG Version: 6.00 Build 0)  -->
<svg version="1.1" id="Layer_1" xmlns="http://www.w3.org/2000/svg" xmlns:xlink="http://www.w3.org/1999/xlink" x="0px" y="0px"
	 viewBox="0 0 194 55" style="enable-background:new 0 0 194 55;" xml:space="preserve">
<style type="text/css">
	.st0{fill:#FFFFFF;}
</style>
<path class="st0" d="M1.9,54.5C1.6,55,1,55.1,0.5,54.9C0,54.6-0.1,54,0.1,53.5L1.9,54.5z M188.9,50.9c-0.2,0.5-0.8,0.7-1.3,0.4
	l-8.1-4c-0.5-0.2-0.7-0.8-0.4-1.3c0.2-0.5,0.8-0.7,1.3-0.4l7.2,3.6l3.6-7.2c0.2-0.5,0.8-0.7,1.3-0.4c0.5,0.2,0.7,0.8,0.4,1.3
	L188.9,50.9z M0.1,53.5c7-12.1,17.2-25.5,33.4-35.8C49.8,7.3,71.8,0,102.4,0v2C72.2,2,50.5,9.2,34.6,19.3
	C18.8,29.5,8.7,42.6,1.9,54.5L0.1,53.5z M102.4,0c22.9,0,43.5,9.5,58.8,20.5c7.7,5.5,14.1,11.3,18.8,16.6c4.7,5.2,7.8,9.9,8.9,13.1
	l-1.9,0.6c-0.9-2.8-3.8-7.2-8.5-12.4c-4.6-5.1-10.9-10.9-18.5-16.3C144.9,11.3,124.7,2,102.4,2V0z"/>
</svg>
